<svg version="1.1" id="Layer_1" xmlns="http://www.w3.org/2000/svg" xmlns:xlink="http://www.w3.org/1999/xlink" x="0px" y="0px"
	 width="100%" viewBox="0 0 495 171" enable-background="new 0 0 495 171" xml:space="preserve">
<path fill="#5E35B1" opacity="1.000000" stroke="none" 
	d="
M390.000000,172.000000 
	C260.000000,172.000000 130.500000,172.000000 1.000000,172.000000 
	C1.000000,115.000000 1.000000,58.000000 1.000000,1.000000 
	C166.000000,1.000000 331.000000,1.000000 496.000000,1.000000 
	C496.000000,58.000000 496.000000,115.000000 496.000000,172.000000 
	C460.833344,172.000000 425.666656,172.000000 390.000000,172.000000 
M387.499969,166.892181 
	C421.907227,166.892181 456.314484,166.892181 490.531555,166.892181 
	C490.531555,112.845840 490.531555,59.603008 490.531555,6.420945 
	C328.931580,6.420945 167.696167,6.420945 6.380066,6.420945 
	C6.380066,59.976776 6.380066,113.219063 6.380066,166.892181 
	C133.270370,166.892181 259.885162,166.892181 387.499969,166.892181 
z"/>
<path fill="#FEFDFE" opacity="1.000000" stroke="none" 
	d="
M386.999939,166.892181 
	C259.885162,166.892181 133.270370,166.892181 6.380066,166.892181 
	C6.380066,113.219063 6.380066,59.976776 6.380066,6.420945 
	C167.696167,6.420945 328.931580,6.420945 490.531555,6.420945 
	C490.531555,59.603008 490.531555,112.845840 490.531555,166.892181 
	C456.314484,166.892181 421.907227,166.892181 386.999939,166.892181 
M255.500427,35.496361 
	C241.918381,37.758293 231.017029,33.859840 222.677948,22.406570 
	C219.274628,17.732264 217.371597,18.135674 213.342255,22.173311 
	C196.045227,39.505943 178.794128,56.884411 161.528427,74.248306 
	C161.059341,74.720062 160.253693,75.193321 160.221634,75.704575 
	C160.090714,77.790627 160.199875,79.891731 160.220596,81.987297 
	C162.313293,81.882812 164.459091,82.017471 166.475632,81.569878 
	C167.439713,81.355873 168.166672,80.045479 168.987457,79.218201 
	C181.306671,66.801552 193.659332,54.417789 205.920456,41.944027 
	C209.874222,37.921665 213.585648,33.661091 217.493301,29.416748 
	C218.985855,30.684473 219.632919,31.159151 220.192947,31.720648 
	C235.837296,47.406269 251.535004,63.039669 267.051880,78.850525 
	C269.808228,81.659096 272.498535,83.131653 276.567322,83.089294 
	C295.555725,82.891647 314.547791,83.058968 333.537140,82.912575 
	C335.436035,82.897934 337.325409,81.645477 339.219208,80.967506 
	C338.319641,79.147194 337.807159,76.949623 336.459076,75.566460 
	C325.995300,64.830551 315.151855,54.457104 304.888672,43.536564 
	C299.852753,38.178062 294.808899,34.022755 286.968933,35.261795 
	C286.751251,35.296200 286.469513,34.925198 285.716370,34.381081 
	C285.716370,29.668407 285.716370,24.581125 285.716370,19.410261 
	C282.282654,19.410261 279.355804,19.410261 275.877716,19.410261 
	C275.877716,24.714769 275.877716,29.797758 275.877716,35.496437 
	C269.057159,35.496437 262.778656,35.496437 255.500427,35.496361 
M409.913727,129.487762 
	C405.860901,124.417915 401.378265,119.625435 397.877289,114.199509 
	C394.438690,108.870293 390.099731,108.293915 384.479370,109.676147 
	C384.479370,124.067619 384.479370,138.437469 384.479370,152.879089 
	C388.236969,152.879089 391.650421,152.879089 395.772827,152.879089 
	C395.772827,145.258896 395.772827,137.939758 395.772827,129.212204 
	C401.503662,136.384796 406.664734,142.054016 410.876282,148.357651 
	C414.449158,153.705353 418.867462,153.777328 424.091675,152.771759 
	C424.091675,138.140732 424.091675,123.778915 424.091675,109.565140 
	C420.236542,109.565140 416.842072,109.565140 412.932068,109.565140 
	C412.932068,117.338707 412.932068,124.694862 412.932068,133.009918 
	C411.583405,131.481323 410.952423,130.766159 409.913727,129.487762 
M195.474442,109.151764 
	C191.020950,109.151764 186.567459,109.151764 181.795944,109.151764 
	C181.795944,124.002464 181.795944,138.383820 181.795944,153.002365 
	C190.203918,153.002365 198.356186,153.399017 206.451736,152.891342 
	C214.622559,152.378937 219.355469,144.730484 216.677887,137.013351 
	C215.908661,134.796295 214.225433,132.896378 212.897339,130.747620 
	C217.496002,127.175400 218.177200,122.335251 216.572357,117.272614 
	C214.922287,112.067291 210.589478,109.965950 205.416428,109.535133 
	C202.439331,109.287209 199.442856,109.271828 195.474442,109.151764 
M449.980713,142.947311 
	C443.833374,140.893402 440.879822,137.517426 440.546692,132.163864 
	C440.226105,127.012291 442.835419,122.266785 447.418610,120.487221 
	C452.069855,118.681229 457.254517,118.571365 460.263641,122.753006 
	C464.405029,128.508102 469.493347,126.623344 474.724335,126.599335 
	C472.029602,114.064140 460.155579,106.614182 447.338806,109.052574 
	C435.668793,111.272804 427.200012,123.571449 429.393372,135.113602 
	C431.771484,147.628036 443.875275,155.985672 456.434784,153.785614 
	C467.870850,151.782364 476.327515,141.187805 474.618439,130.736542 
	C466.890808,130.736542 459.127319,130.736542 451.124878,130.736542 
	C451.124878,133.542633 451.124878,136.093613 451.124878,139.241791 
	C454.376587,139.241791 457.344757,139.241791 460.312927,139.241791 
	C460.378448,139.848679 460.444000,140.455582 460.509521,141.062469 
	C457.274292,141.719742 454.039032,142.377029 449.980713,142.947311 
M33.989265,111.240738 
	C30.587822,110.302635 27.186380,109.364532 23.326347,108.299950 
	C23.326347,124.101212 23.326347,138.484802 23.326347,152.803589 
	C27.058565,152.803589 30.457754,152.803589 34.287807,152.803589 
	C34.287807,145.064011 34.287807,137.677597 34.287807,128.947540 
	C39.854603,135.905975 45.020592,141.539413 49.193981,147.831268 
	C52.768379,153.220047 57.103104,154.130066 62.766365,152.690338 
	C62.766365,138.227768 62.766365,123.863541 62.766365,109.577164 
	C58.972572,109.577164 55.591434,109.577164 51.662849,109.577164 
	C51.662849,117.461189 51.662849,124.944771 51.662849,133.336746 
	C45.466736,125.606163 39.952393,118.726189 33.989265,111.240738 
M82.304428,152.447388 
	C83.574257,152.836182 84.819351,153.372467 86.117859,153.590286 
	C95.819717,155.217682 104.018234,152.446762 109.848877,144.434250 
	C115.316437,136.920670 115.762001,128.704681 111.320625,120.488144 
	C106.512154,111.592468 96.653023,107.168594 86.362526,109.014259 
	C77.551201,110.594635 69.504372,118.648216 68.081650,127.310471 
	C66.362823,137.775650 71.107986,146.481720 82.304428,152.447388 
M238.689926,153.097565 
	C248.711594,155.676483 257.986603,152.701813 263.906586,144.568787 
	C269.390900,137.034256 269.844818,128.822189 265.541779,120.631851 
	C260.748749,111.508850 250.493881,107.011948 240.187088,109.061470 
	C230.986603,110.890984 222.964096,119.560493 222.084412,128.624100 
	C221.010880,139.684952 226.558456,148.219635 238.689926,153.097565 
M298.830994,108.827782 
	C285.759064,107.865349 274.364563,116.529526 273.082489,128.406464 
	C271.754211,140.711868 280.469360,152.110046 292.530243,153.841293 
	C304.824982,155.606094 317.020782,147.191437 318.947266,135.614410 
	C321.129364,122.501350 313.222198,111.550514 298.830994,108.827782 
M358.244965,145.261658 
	C354.183807,139.639923 350.122650,134.018173 345.948364,128.239822 
	C351.599060,122.007950 357.012115,116.038162 363.246216,109.162895 
	C360.077576,109.162895 358.120697,109.395523 356.238831,109.118607 
	C350.926270,108.336884 347.054291,110.166901 343.904480,114.552277 
	C341.557343,117.820068 338.517761,120.590515 334.866028,124.590889 
	C334.866028,118.642456 334.866028,114.083504 334.866028,109.528976 
	C330.945557,109.528976 327.554169,109.528976 324.095581,109.528976 
	C324.095581,124.152328 324.095581,138.408127 324.095581,152.906784 
	C327.757599,152.906784 331.150574,152.906784 334.438660,152.906784 
	C336.463165,147.767868 332.460724,141.415863 338.181549,136.947342 
	C341.640869,141.674652 344.704041,146.020126 347.962952,150.213486 
	C348.899323,151.418365 350.328400,152.880280 351.656799,153.018158 
	C355.350952,153.401566 359.110840,153.151260 363.879486,153.151260 
	C361.700989,150.084763 360.193512,147.962845 358.244965,145.261658 
M155.351868,120.153366 
	C156.162506,116.698563 156.973145,113.243767 157.856995,109.476974 
	C144.022980,109.476974 131.623947,109.476974 119.216721,109.476974 
	C119.216721,113.194473 119.216721,116.573967 119.216721,120.457779 
	C123.699036,120.457779 127.774803,120.457779 132.302368,120.457779 
	C132.302368,131.561218 132.302368,142.158005 132.302368,152.908142 
	C136.190704,152.908142 139.606628,152.908142 143.747849,152.908142 
	C143.747849,141.938843 143.747849,131.236526 143.747849,120.182739 
	C147.773468,120.182739 151.081024,120.182739 155.351868,120.153366 
M374.510590,153.206497 
	C376.125885,153.132263 377.741180,153.058029 379.520996,152.976227 
	C379.520996,138.272308 379.520996,123.925056 379.520996,109.438583 
	C375.771698,109.438583 372.379059,109.438583 368.798889,109.438583 
	C368.798889,124.106590 368.798889,138.462982 368.798889,153.206482 
	C370.635498,153.206482 372.111145,153.206482 374.510590,153.206497 
M229.895493,74.072441 
	C226.474747,73.452805 223.054001,72.833176 219.470886,72.184128 
	C219.470886,76.483925 219.470886,79.556847 219.470886,82.745148 
	C223.077072,82.745148 226.398087,82.745148 229.940353,82.745148 
	C229.940353,79.878090 229.940353,77.417786 229.895493,74.072441 
M229.157272,59.201183 
	C225.918732,59.201183 222.680176,59.201183 219.513550,59.201183 
	C219.513550,63.068295 219.513550,66.304466 219.513550,69.548615 
	C223.099197,69.548615 226.337814,69.548615 229.804977,69.548615 
	C229.804977,66.113564 229.804977,62.990250 229.157272,59.201183 
M207.770950,69.808250 
	C210.511551,69.808250 213.252151,69.808250 216.143173,69.808250 
	C216.143173,65.959480 216.143173,62.718422 216.143173,59.379684 
	C212.664108,59.379684 209.462341,59.379684 205.491943,59.379684 
	C205.985855,63.080036 206.426193,66.379005 207.770950,69.808250 
M210.558456,83.131516 
	C212.331406,83.131516 214.104355,83.131516 215.967987,83.131516 
	C215.967987,79.375687 215.967987,76.194901 215.967987,72.993317 
	C212.488632,72.993317 209.421997,72.993317 205.923065,72.993317 
	C205.923065,75.410942 206.098190,77.546715 205.881119,79.641853 
	C205.572754,82.617920 206.926331,83.502991 210.558456,83.131516 
z"/>
<path fill="#6037B2" opacity="1.000000" stroke="none" 
	d="
M256.000275,35.496399 
	C262.778656,35.496437 269.057159,35.496437 275.877716,35.496437 
	C275.877716,29.797758 275.877716,24.714769 275.877716,19.410261 
	C279.355804,19.410261 282.282654,19.410261 285.716370,19.410261 
	C285.716370,24.581125 285.716370,29.668407 285.716370,34.381081 
	C286.469513,34.925198 286.751251,35.296200 286.968933,35.261795 
	C294.808899,34.022755 299.852753,38.178062 304.888672,43.536564 
	C315.151855,54.457104 325.995300,64.830551 336.459076,75.566460 
	C337.807159,76.949623 338.319641,79.147194 339.219208,80.967499 
	C337.325409,81.645477 335.436035,82.897934 333.537140,82.912575 
	C314.547791,83.058968 295.555725,82.891647 276.567322,83.089294 
	C272.498535,83.131653 269.808228,81.659096 267.051880,78.850525 
	C251.535004,63.039669 235.837296,47.406269 220.192947,31.720648 
	C219.632919,31.159151 218.985855,30.684473 217.493301,29.416748 
	C213.585648,33.661091 209.874222,37.921665 205.920456,41.944027 
	C193.659332,54.417789 181.306671,66.801552 168.987457,79.218201 
	C168.166672,80.045479 167.439713,81.355873 166.475632,81.569878 
	C164.459091,82.017471 162.313293,81.882812 160.220596,81.987297 
	C160.199875,79.891731 160.090714,77.790627 160.221634,75.704575 
	C160.253693,75.193321 161.059341,74.720062 161.528427,74.248306 
	C178.794128,56.884411 196.045227,39.505943 213.342255,22.173311 
	C217.371597,18.135674 219.274628,17.732264 222.677948,22.406570 
	C231.017029,33.859840 241.918381,37.758293 256.000275,35.496399 
z"/>
<path fill="#663FB5" opacity="1.000000" stroke="none" 
	d="
M410.117615,129.769379 
	C410.952423,130.766159 411.583405,131.481323 412.932068,133.009918 
	C412.932068,124.694862 412.932068,117.338707 412.932068,109.565140 
	C416.842072,109.565140 420.236542,109.565140 424.091675,109.565140 
	C424.091675,123.778915 424.091675,138.140732 424.091675,152.771759 
	C418.867462,153.777328 414.449158,153.705353 410.876282,148.357651 
	C406.664734,142.054016 401.503662,136.384796 395.772827,129.212204 
	C395.772827,137.939758 395.772827,145.258896 395.772827,152.879089 
	C391.650421,152.879089 388.236969,152.879089 384.479370,152.879089 
	C384.479370,138.437469 384.479370,124.067619 384.479370,109.676147 
	C390.099731,108.293915 394.438690,108.870293 397.877289,114.199509 
	C401.378265,119.625435 405.860901,124.417915 410.117615,129.769379 
z"/>
<path fill="#633CB4" opacity="1.000000" stroke="none" 
	d="
M195.964783,109.151764 
	C199.442856,109.271828 202.439331,109.287209 205.416428,109.535133 
	C210.589478,109.965950 214.922287,112.067291 216.572357,117.272614 
	C218.177200,122.335251 217.496002,127.175400 212.897339,130.747620 
	C214.225433,132.896378 215.908661,134.796295 216.677887,137.013351 
	C219.355469,144.730484 214.622559,152.378937 206.451736,152.891342 
	C198.356186,153.399017 190.203918,153.002365 181.795944,153.002365 
	C181.795944,138.383820 181.795944,124.002464 181.795944,109.151764 
	C186.567459,109.151764 191.020950,109.151764 195.964783,109.151764 
M196.558197,135.831070 
	C190.206421,135.731628 193.485260,139.795715 193.188141,142.792236 
	C196.630844,142.792236 199.667084,143.150345 202.544769,142.630554 
	C203.846848,142.395355 205.670013,140.444641 205.712646,139.218506 
	C205.750229,138.138214 203.815994,136.533005 202.426941,135.985458 
	C200.985031,135.417068 199.152237,135.840332 196.558197,135.831070 
M205.170319,121.105026 
	C201.257782,120.534416 197.345230,119.963806 193.115265,119.346901 
	C193.115265,122.450378 193.115265,124.497269 193.115265,126.970230 
	C196.141541,126.970230 198.914566,127.051361 201.680817,126.949257 
	C204.980255,126.827477 206.594299,125.259453 205.170319,121.105026 
z"/>
<path fill="#623AB3" opacity="1.000000" stroke="none" 
	d="
M450.392273,142.990814 
	C454.039032,142.377029 457.274292,141.719742 460.509521,141.062469 
	C460.444000,140.455582 460.378448,139.848679 460.312927,139.241791 
	C457.344757,139.241791 454.376587,139.241791 451.124878,139.241791 
	C451.124878,136.093613 451.124878,133.542633 451.124878,130.736542 
	C459.127319,130.736542 466.890808,130.736542 474.618439,130.736542 
	C476.327515,141.187805 467.870850,151.782364 456.434784,153.785614 
	C443.875275,155.985672 431.771484,147.628036 429.393372,135.113602 
	C427.200012,123.571449 435.668793,111.272804 447.338806,109.052574 
	C460.155579,106.614182 472.029602,114.064140 474.724335,126.599335 
	C469.493347,126.623344 464.405029,128.508102 460.263641,122.753006 
	C457.254517,118.571365 452.069855,118.681229 447.418610,120.487221 
	C442.835419,122.266785 440.226105,127.012291 440.546692,132.163864 
	C440.879822,137.517426 443.833374,140.893402 450.392273,142.990814 
z"/>
<path fill="#5F37B2" opacity="1.000000" stroke="none" 
	d="
M34.213654,111.543472 
	C39.952393,118.726189 45.466736,125.606163 51.662849,133.336746 
	C51.662849,124.944771 51.662849,117.461189 51.662849,109.577164 
	C55.591434,109.577164 58.972572,109.577164 62.766365,109.577164 
	C62.766365,123.863541 62.766365,138.227768 62.766365,152.690338 
	C57.103104,154.130066 52.768379,153.220047 49.193981,147.831268 
	C45.020592,141.539413 39.854603,135.905975 34.287807,128.947540 
	C34.287807,137.677597 34.287807,145.064011 34.287807,152.803589 
	C30.457754,152.803589 27.058565,152.803589 23.326347,152.803589 
	C23.326347,138.484802 23.326347,124.101212 23.326347,108.299950 
	C27.186380,109.364532 30.587822,110.302635 34.213654,111.543472 
z"/>
<path fill="#6139B3" opacity="1.000000" stroke="none" 
	d="
M81.951523,152.278900 
	C71.107986,146.481720 66.362823,137.775650 68.081650,127.310471 
	C69.504372,118.648216 77.551201,110.594635 86.362526,109.014259 
	C96.653023,107.168594 106.512154,111.592468 111.320625,120.488144 
	C115.762001,128.704681 115.316437,136.920670 109.848877,144.434250 
	C104.018234,152.446762 95.819717,155.217682 86.117859,153.590286 
	C84.819351,153.372467 83.574257,152.836182 81.951523,152.278900 
M86.433945,120.267372 
	C81.266060,122.831291 78.581772,126.968758 79.224747,132.746765 
	C79.793663,137.859238 82.844246,141.392593 87.777184,142.725830 
	C92.651863,144.043304 97.021843,142.742340 100.312584,138.680862 
	C103.419594,134.846130 103.724075,129.465622 101.127602,125.120399 
	C98.336617,120.449684 94.133026,118.908882 86.433945,120.267372 
z"/>
<path fill="#6139B3" opacity="1.000000" stroke="none" 
	d="
M238.289703,153.018524 
	C226.558456,148.219635 221.010880,139.684952 222.084412,128.624100 
	C222.964096,119.560493 230.986603,110.890984 240.187088,109.061470 
	C250.493881,107.011948 260.748749,111.508850 265.541779,120.631851 
	C269.844818,128.822189 269.390900,137.034256 263.906586,144.568787 
	C257.986603,152.701813 248.711594,155.676483 238.289703,153.018524 
M236.066925,123.601166 
	C232.113663,129.932541 232.385605,135.447083 236.865662,139.798737 
	C240.800400,143.620697 246.942657,144.283554 251.497696,141.377792 
	C257.259247,137.702362 258.774017,129.993240 254.835800,124.389160 
	C250.673279,118.465889 243.218597,117.915810 236.066925,123.601166 
z"/>
<path fill="#6139B3" opacity="1.000000" stroke="none" 
	d="
M299.235260,108.851158 
	C313.222198,111.550514 321.129364,122.501350 318.947266,135.614410 
	C317.020782,147.191437 304.824982,155.606094 292.530243,153.841293 
	C280.469360,152.110046 271.754211,140.711868 273.082489,128.406464 
	C274.364563,116.529526 285.759064,107.865349 299.235260,108.851158 
M286.600891,124.211395 
	C283.153168,130.584518 283.640717,135.916000 288.042969,139.981003 
	C292.110992,143.737366 298.184845,144.257919 302.697205,141.236938 
	C308.345490,137.455475 309.721558,129.607819 305.690033,124.168953 
	C301.265900,118.200424 293.451111,117.963058 286.600891,124.211395 
z"/>
<path fill="#6138B2" opacity="1.000000" stroke="none" 
	d="
M358.465515,145.551300 
	C360.193512,147.962845 361.700989,150.084763 363.879486,153.151260 
	C359.110840,153.151260 355.350952,153.401566 351.656799,153.018158 
	C350.328400,152.880280 348.899323,151.418365 347.962952,150.213486 
	C344.704041,146.020126 341.640869,141.674652 338.181549,136.947342 
	C332.460724,141.415863 336.463165,147.767868 334.438660,152.906784 
	C331.150574,152.906784 327.757599,152.906784 324.095581,152.906784 
	C324.095581,138.408127 324.095581,124.152328 324.095581,109.528976 
	C327.554169,109.528976 330.945557,109.528976 334.866028,109.528976 
	C334.866028,114.083504 334.866028,118.642456 334.866028,124.590889 
	C338.517761,120.590515 341.557343,117.820068 343.904480,114.552277 
	C347.054291,110.166901 350.926270,108.336884 356.238831,109.118607 
	C358.120697,109.395523 360.077576,109.162895 363.246216,109.162895 
	C357.012115,116.038162 351.599060,122.007950 345.948364,128.239822 
	C350.122650,134.018173 354.183807,139.639923 358.465515,145.551300 
z"/>
<path fill="#653DB4" opacity="1.000000" stroke="none" 
	d="
M154.870224,120.168053 
	C151.081024,120.182739 147.773468,120.182739 143.747849,120.182739 
	C143.747849,131.236526 143.747849,141.938843 143.747849,152.908142 
	C139.606628,152.908142 136.190704,152.908142 132.302368,152.908142 
	C132.302368,142.158005 132.302368,131.561218 132.302368,120.457779 
	C127.774803,120.457779 123.699036,120.457779 119.216721,120.457779 
	C119.216721,116.573967 119.216721,113.194473 119.216721,109.476974 
	C131.623947,109.476974 144.022980,109.476974 157.856995,109.476974 
	C156.973145,113.243767 156.162506,116.698563 154.870224,120.168053 
z"/>
<path fill="#6942B6" opacity="1.000000" stroke="none" 
	d="
M374.048706,153.206482 
	C372.111145,153.206482 370.635498,153.206482 368.798889,153.206482 
	C368.798889,138.462982 368.798889,124.106590 368.798889,109.438583 
	C372.379059,109.438583 375.771698,109.438583 379.520996,109.438583 
	C379.520996,123.925056 379.520996,138.272308 379.520996,152.976227 
	C377.741180,153.058029 376.125885,153.132263 374.048706,153.206482 
z"/>
<path fill="#643DB4" opacity="1.000000" stroke="none" 
	d="
M229.917923,74.514961 
	C229.940353,77.417786 229.940353,79.878090 229.940353,82.745148 
	C226.398087,82.745148 223.077072,82.745148 219.470886,82.745148 
	C219.470886,79.556847 219.470886,76.483925 219.470886,72.184128 
	C223.054001,72.833176 226.474747,73.452805 229.917923,74.514961 
z"/>
<path fill="#6943B6" opacity="1.000000" stroke="none" 
	d="
M229.481125,59.534058 
	C229.804977,62.990250 229.804977,66.113564 229.804977,69.548615 
	C226.337814,69.548615 223.099197,69.548615 219.513550,69.548615 
	C219.513550,66.304466 219.513550,63.068295 219.513550,59.201183 
	C222.680176,59.201183 225.918732,59.201183 229.481125,59.534058 
z"/>
<path fill="#643CB4" opacity="1.000000" stroke="none" 
	d="
M207.318726,69.743111 
	C206.426193,66.379005 205.985855,63.080036 205.491943,59.379684 
	C209.462341,59.379684 212.664108,59.379684 216.143173,59.379684 
	C216.143173,62.718422 216.143173,65.959480 216.143173,69.808250 
	C213.252151,69.808250 210.511551,69.808250 207.318726,69.743111 
z"/>
<path fill="#5E35B1" opacity="1.000000" stroke="none" 
	d="
M210.081818,83.131073 
	C206.926331,83.502991 205.572754,82.617920 205.881119,79.641853 
	C206.098190,77.546715 205.923065,75.410942 205.923065,72.993317 
	C209.421997,72.993317 212.488632,72.993317 215.967987,72.993317 
	C215.967987,76.194901 215.967987,79.375687 215.967987,83.131516 
	C214.104355,83.131516 212.331406,83.131516 210.081818,83.131073 
z"/>
<path fill="#F8F7FC" opacity="1.000000" stroke="none" 
	d="
M197.024292,135.830505 
	C199.152237,135.840332 200.985031,135.417068 202.426941,135.985458 
	C203.815994,136.533005 205.750229,138.138214 205.712646,139.218506 
	C205.670013,140.444641 203.846848,142.395355 202.544769,142.630554 
	C199.667084,143.150345 196.630844,142.792236 193.188141,142.792236 
	C193.485260,139.795715 190.206421,135.731628 197.024292,135.830505 
z"/>
<path fill="#FDFCFE" opacity="1.000000" stroke="none" 
	d="
M205.411743,121.450600 
	C206.594299,125.259453 204.980255,126.827477 201.680817,126.949257 
	C198.914566,127.051361 196.141541,126.970230 193.115265,126.970230 
	C193.115265,124.497269 193.115265,122.450378 193.115265,119.346901 
	C197.345230,119.963806 201.257782,120.534416 205.411743,121.450600 
z"/>
<path fill="#FCFBFE" opacity="1.000000" stroke="none" 
	d="
M86.835716,120.148239 
	C94.133026,118.908882 98.336617,120.449684 101.127602,125.120399 
	C103.724075,129.465622 103.419594,134.846130 100.312584,138.680862 
	C97.021843,142.742340 92.651863,144.043304 87.777184,142.725830 
	C82.844246,141.392593 79.793663,137.859238 79.224747,132.746765 
	C78.581772,126.968758 81.266060,122.831291 86.835716,120.148239 
z"/>
<path fill="#FCFCFE" opacity="1.000000" stroke="none" 
	d="
M236.327362,123.321899 
	C243.218597,117.915810 250.673279,118.465889 254.835800,124.389160 
	C258.774017,129.993240 257.259247,137.702362 251.497696,141.377792 
	C246.942657,144.283554 240.800400,143.620697 236.865662,139.798737 
	C232.385605,135.447083 232.113663,129.932541 236.327362,123.321899 
z"/>
<path fill="#FCFCFE" opacity="1.000000" stroke="none" 
	d="
M286.832581,123.907303 
	C293.451111,117.963058 301.265900,118.200424 305.690033,124.168953 
	C309.721558,129.607819 308.345490,137.455475 302.697205,141.236938 
	C298.184845,144.257919 292.110992,143.737366 288.042969,139.981003 
	C283.640717,135.916000 283.153168,130.584518 286.832581,123.907303 
z"/>
</svg>